<svg width="68" height="67" viewBox="0 0 68 67" fill="none" xmlns="http://www.w3.org/2000/svg">
<g filter="url(#filter0_d)">
<ellipse cx="34" cy="20.5" rx="16" ry="15.5" fill="#F53838"/>
</g>
<path d="M33.8 3.58057C24.5215 3.58057 17 11.1021 17 20.3806C17 29.6591 24.5215 37.1806 33.8 37.1806C43.0785 37.1806 50.6 29.6591 50.6 20.3806C50.6 11.1021 43.0785 3.58057 33.8 3.58057ZM37.7795 15.1901H35.2543C34.955 15.1901 34.6225 15.5838 34.6225 16.1071V17.9306H37.7813L37.3035 20.5311H34.6225V28.3378H31.6423V20.5311H28.9385V17.9306H31.6423V16.4011C31.6423 14.2066 33.1648 12.4233 35.2543 12.4233H37.7795V15.1901Z" fill="white"/>
<defs>
<filter id="filter0_d" x="0" y="0" width="68" height="67" filterUnits="userSpaceOnUse" color-interpolation-filters="sRGB">
<feFlood flood-opacity="0" result="BackgroundImageFix"/>
<feColorMatrix in="SourceAlpha" type="matrix" values="0 0 0 0 0 0 0 0 0 0 0 0 0 0 0 0 0 0 127 0"/>
<feOffset dy="13"/>
<feGaussianBlur stdDeviation="9"/>
<feColorMatrix type="matrix" values="0 0 0 0 0.0658854 0 0 0 0 0.0730469 0 0 0 0 0.1375 0 0 0 0.08 0"/>
<feBlend mode="normal" in2="BackgroundImageFix" result="effect1_dropShadow"/>
<feBlend mode="normal" in="SourceGraphic" in2="effect1_dropShadow" result="shape"/>
</filter>
</defs>
</svg>
