<svg width="68" height="67" viewBox="0 0 68 67" fill="none" xmlns="http://www.w3.org/2000/svg">
<g filter="url(#filter0_d)">
<ellipse cx="34" cy="20.5" rx="16" ry="15.5" fill="#F53838"/>
</g>
<path d="M39.25 20.3806C39.25 21.773 38.6968 23.1083 37.7123 24.0929C36.7277 25.0774 35.3923 25.6306 34 25.6306C32.6076 25.6306 31.2722 25.0774 30.2876 24.0929C29.3031 23.1083 28.75 21.773 28.75 20.3806C28.75 20.0813 28.7815 19.7891 28.8357 19.5056H27V26.5003C27 26.9868 27.3937 27.3806 27.8802 27.3806H40.1215C40.3546 27.3801 40.5781 27.2872 40.7428 27.1221C40.9075 26.9571 41 26.7335 41 26.5003V19.5056H39.1642C39.2185 19.7891 39.25 20.0813 39.25 20.3806ZM34 23.8806C34.4597 23.8805 34.9149 23.7898 35.3396 23.6137C35.7643 23.4377 36.1502 23.1797 36.4752 22.8546C36.8002 22.5294 37.058 22.1434 37.2338 21.7186C37.4096 21.2938 37.5001 20.8386 37.5 20.3788C37.4998 19.9191 37.4092 19.4639 37.2331 19.0392C37.0571 18.6145 36.7991 18.2286 36.474 17.9036C36.1488 17.5786 35.7628 17.3208 35.338 17.145C34.9132 16.9691 34.4579 16.8787 33.9982 16.8788C33.0697 16.8791 32.1793 17.2481 31.523 17.9048C30.8666 18.5615 30.498 19.4521 30.4982 20.3806C30.4984 21.3091 30.8675 22.1994 31.5242 22.8558C32.1809 23.5122 33.0715 23.8808 34 23.8806ZM38.2 16.7056H40.2982C40.4376 16.7056 40.5713 16.6503 40.6701 16.5519C40.7688 16.4535 40.8245 16.32 40.825 16.1806V14.0823C40.825 13.9426 40.7695 13.8086 40.6707 13.7098C40.5719 13.6111 40.4379 13.5556 40.2982 13.5556H38.2C38.0603 13.5556 37.9263 13.6111 37.8275 13.7098C37.7287 13.8086 37.6732 13.9426 37.6732 14.0823V16.1806C37.675 16.4693 37.9112 16.7056 38.2 16.7056ZM34 3.58057C29.5443 3.58057 25.2712 5.35056 22.1206 8.50117C18.9699 11.6518 17.2 15.9249 17.2 20.3806C17.2 24.8362 18.9699 29.1094 22.1206 32.26C25.2712 35.4106 29.5443 37.1806 34 37.1806C36.2062 37.1806 38.3908 36.746 40.429 35.9017C42.4673 35.0575 44.3193 33.82 45.8794 32.26C47.4394 30.6999 48.6769 28.8479 49.5211 26.8097C50.3654 24.7714 50.8 22.5868 50.8 20.3806C50.8 18.1744 50.3654 15.9898 49.5211 13.9515C48.6769 11.9132 47.4394 10.0612 45.8794 8.50117C44.3193 6.94115 42.4673 5.70367 40.429 4.85939C38.3908 4.01511 36.2062 3.58057 34 3.58057ZM42.75 27.1863C42.75 28.2556 41.875 29.1306 40.8057 29.1306H27.1942C26.125 29.1306 25.25 28.2556 25.25 27.1863V13.5748C25.25 12.5056 26.125 11.6306 27.1942 11.6306H40.8057C41.875 11.6306 42.75 12.5056 42.75 13.5748V27.1863Z" fill="white"/>
<defs>
<filter id="filter0_d" x="0" y="0" width="68" height="67" filterUnits="userSpaceOnUse" color-interpolation-filters="sRGB">
<feFlood flood-opacity="0" result="BackgroundImageFix"/>
<feColorMatrix in="SourceAlpha" type="matrix" values="0 0 0 0 0 0 0 0 0 0 0 0 0 0 0 0 0 0 127 0"/>
<feOffset dy="13"/>
<feGaussianBlur stdDeviation="9"/>
<feColorMatrix type="matrix" values="0 0 0 0 0.0658854 0 0 0 0 0.0730469 0 0 0 0 0.1375 0 0 0 0.08 0"/>
<feBlend mode="normal" in2="BackgroundImageFix" result="effect1_dropShadow"/>
<feBlend mode="normal" in="SourceGraphic" in2="effect1_dropShadow" result="shape"/>
</filter>
</defs>
</svg>
